HIERARCHY
ROOT Hips
{
  OFFSET 51.3266 96.2399 5.19764
  CHANNELS 6 Xposition Yposition Zposition Zrotation Xrotation Yrotation
  JOINT spine
  {
    OFFSET 0 8.13249 0.467659
    CHANNELS 3 Zrotation Xrotation Yrotation
    JOINT spine1
    {
      OFFSET 0 10.3498 0
      CHANNELS 3 Zrotation Xrotation Yrotation
      JOINT spine2
      {
        OFFSET 0 9.91699 0
        CHANNELS 3 Zrotation Xrotation Yrotation
        JOINT Neck
        {
          OFFSET 0 25.461 1.2139
          CHANNELS 3 Zrotation Xrotation Yrotation
          JOINT Head
          {
            OFFSET 0 7.69245 0
            CHANNELS 3 Zrotation Xrotation Yrotation
            End Site
            {
              OFFSET 0 18.62 -6.14063
            }
          }
        }
        JOINT RightShoulder
        {
          OFFSET -4.17575 10.7096 -0.581445
          CHANNELS 3 Zrotation Xrotation Yrotation
          JOINT RightArm
          {
            OFFSET 0 14.0466 0
            CHANNELS 3 Zrotation Xrotation Yrotation
            JOINT RightArmRoll
            {
              OFFSET 0 7.09098 0
              CHANNELS 3 Zrotation Xrotation Yrotation
              JOINT RightForeArm
              {
                OFFSET 0 20.6535 0
                CHANNELS 3 Zrotation Xrotation Yrotation
                JOINT RightForeArmRoll
                {
                  OFFSET 0 7.95718 0
                  CHANNELS 3 Zrotation Xrotation Yrotation
                  JOINT RightHand
                  {
                    OFFSET 0 15.9683 0
                    CHANNELS 3 Zrotation Xrotation Yrotation
                    End Site
                    {
                      OFFSET 0 0 0
                    }
                  }
                }
              }
            }
          }
        }
        JOINT LeftShoulder
        {
          OFFSET 4.17575 10.7096 -0.581445
          CHANNELS 3 Zrotation Xrotation Yrotation
          JOINT LeftArm
          {
            OFFSET 0 14.0466 0
            CHANNELS 3 Zrotation Xrotation Yrotation
            JOINT LeftArmRoll
            {
              OFFSET 0 7.09098 0
              CHANNELS 3 Zrotation Xrotation Yrotation
              JOINT LeftForeArm
              {
                OFFSET 0 20.6535 0
                CHANNELS 3 Zrotation Xrotation Yrotation
                JOINT LeftForeArmRoll
                {
                  OFFSET 0 7.95718 0
                  CHANNELS 3 Zrotation Xrotation Yrotation
                  JOINT LeftHand
                  {
                    OFFSET 0 15.9683 0
                    CHANNELS 3 Zrotation Xrotation Yrotation
                    End Site
                    {
                      OFFSET 0 0 0
                    }
                  }
                }
              }
            }
          }
        }
      }
    }
  }
  JOINT RightUpLeg
  {
    OFFSET -7.20834 -1.32182 -1.10884
    CHANNELS 3 Zrotation Xrotation Yrotation
    JOINT RightUpLegRoll
    {
      OFFSET 0 18.7238 0
      CHANNELS 3 Zrotation Xrotation Yrotation
      JOINT RightLeg
      {
        OFFSET 0 -23.1866 0
        CHANNELS 3 Zrotation Xrotation Yrotation
        JOINT RightLegRoll
        {
          OFFSET 0 23.2624 0
          CHANNELS 3 Zrotation Xrotation Yrotation
          JOINT RightFoot
          {
            OFFSET 0 19.3621 0
            CHANNELS 3 Zrotation Xrotation Yrotation
            JOINT RightToeBase
            {
              OFFSET 0 16.1857 0
              CHANNELS 3 Zrotation Xrotation Yrotation
              End Site
              {
                OFFSET 0.00686052 7.83863 -0.903522
              }
            }
          }
        }
      }
    }
  }
  JOINT LeftUpLeg
  {
    OFFSET 7.20834 -1.32182 -1.10884
    CHANNELS 3 Zrotation Xrotation Yrotation
    JOINT LeftUpLegRoll
    {
      OFFSET 0 18.7239 0
      CHANNELS 3 Zrotation Xrotation Yrotation
      JOINT LeftLeg
      {
        OFFSET 0 23.1865 0
        CHANNELS 3 Zrotation Xrotation Yrotation
        JOINT LeftLegRoll
        {
          OFFSET 0 23.4775 0
          CHANNELS 3 Zrotation Xrotation Yrotation
          JOINT LeftFoot
          {
            OFFSET 0 19.147 0
            CHANNELS 3 Zrotation Xrotation Yrotation
            JOINT LeftToeBase
            {
              OFFSET 0 16.1857 0
              CHANNELS 3 Zrotation Xrotation Yrotation
              End Site
              {
                OFFSET -0.0307459 7.83862 -0.903522
              }
            }
          }
        }
      }
    }
  }
}
MOTION
Frames: 13
Frame Time: 0.00208333
55.4727 95.801 13.5598 -3.5151 -3.97826 7.92092 1.18821 -0.194354 -1.40116 2.39057 3.58286 -2.95253 2.4294 5.22617 -2.99571 47.1321 4.595 -10.4979 -34.9863 8.50757 -1.81069 73.3814 -27.5392 -14.6763 79.9048 22.2188 -38.087 -1.24056e-006 1.02476e-006 -4.50596e-007 -170.57 40.6439 128.61 7.51572e-006 -5.63955e-006 -2.99999 8.02902 -4.95143 0.697671 -21.1561 8.61773 -16.2408 56.9596 77.2595 -164.328 2.4501e-005 -1.5118e-006 5.12599e-006 11.7791 -0.135248 0.420427 3.06198e-006 1.79767e-006 3.05744 -8.02902 -4.95144 -0.697668 177.529 8.28357 0.832297 180 7.01588e-015 179.116 177.92 7.89191 179.841 3.27169e-006 -1.13522e-006 -0.00690444 -15.669 65.8553 18.0063 8.12746 25.2332 -3.48389 -174.132 -3.48218 -2.15245 4.5067e-006 -1.99009e-005 -1.02012 -1.8302 -15.6962 0.21041 1.26754e-006 2.18775e-006 -0.518525 31.3434 77.2592 -32.993 -8.15566 25.653 3.01421 
55.4946 95.7948 13.5776 -3.5109 -3.96282 7.80373 1.1891 -0.19042 -1.40023 2.39306 3.59069 -2.95091 2.43187 5.234 -2.99414 47.1863 4.51066 -10.4375 -35.118 8.55568 -1.76188 73.418 -27.5621 -14.6808 79.8954 22.0497 -38.0894 -1.24056e-006 1.02476e-006 -4.50596e-007 -170.581 40.5918 128.55 7.51572e-006 -5.63955e-006 -2.99999 8.02902 -4.95143 0.697671 -21.0581 8.56941 -16.2226 56.7638 77.1951 -164.12 2.4501e-005 -1.5118e-006 5.12599e-006 11.8171 -0.134482 0.407762 3.06198e-006 1.79767e-006 3.05706 -8.02902 -4.95144 -0.697668 177.489 8.29689 0.883417 180 7.01587e-015 179.116 177.865 7.87667 179.846 3.27169e-006 -1.13522e-006 -0.00505378 -15.6943 65.8595 18.0066 8.12746 25.2332 -3.48389 -174.172 -3.51626 -2.14013 4.5067e-006 -1.99009e-005 -1.02243 -1.84303 -15.6593 0.207683 1.26754e-006 2.18775e-006 -0.515371 31.2852 77.237 -32.9343 -8.15787 25.6845 3.01536 
55.5129 95.7938 13.5868 -3.50577 -3.95019 7.6871 1.18957 -0.185551 -1.39871 2.39479 3.60042 -2.94808 2.43358 5.24373 -2.99134 47.2394 4.42009 -10.3758 -35.2419 8.60522 -1.71406 73.4505 -27.5837 -14.6854 79.8926 21.8837 -38.0844 -1.24056e-006 1.02476e-006 -4.50596e-007 -170.593 40.5443 128.499 7.51572e-006 -5.63955e-006 -2.99999 8.02902 -4.95143 0.697671 -20.9592 8.51318 -16.1956 56.6656 77.1137 -164.021 2.4501e-005 -1.5118e-006 5.12599e-006 11.87 -0.133471 0.389655 3.06198e-006 1.79767e-006 3.057 -8.02902 -4.95144 -0.697668 177.446 8.30584 0.939153 180 7.01587e-015 179.115 177.806 7.85953 179.852 3.27169e-006 -1.13522e-006 -0.00306077 -15.7226 65.8647 18.0071 8.12746 25.2332 -3.48389 -174.212 -3.55422 -2.12817 4.5067e-006 -1.99009e-005 -1.02494 -1.85604 -15.6201 0.204902 1.26754e-006 2.18775e-006 -0.512092 31.2227 77.2129 -32.8713 -8.16023 25.7181 3.0176 
55.536 95.8608 13.5743 -3.49988 -3.9399 7.57107 1.18967 -0.179962 -1.39671 2.39585 3.6116 -2.94426 2.4346 5.25491 -2.98754 47.2916 4.32553 -10.314 -35.3578 8.655 -1.66759 73.4793 -27.6035 -14.6898 79.8949 21.7211 -38.0724 -1.24056e-006 1.02476e-006 -4.50596e-007 -170.606 40.5014 128.458 7.51572e-006 -5.63955e-006 -2.99999 8.02902 -4.95143 0.697671 -20.8603 8.45038 -16.1611 56.6487 77.019 -164.012 2.4501e-005 -1.5118e-006 5.12599e-006 11.935 -0.132249 0.367163 3.06198e-006 1.79767e-006 3.05721 -8.02902 -4.95144 -0.697668 177.401 8.31124 0.998449 180 7.01587e-015 179.114 177.743 7.84101 179.858 3.27169e-006 -1.13522e-006 -0.00096295 -15.7529 65.8706 18.0078 8.12745 25.2332 -3.48388 -174.252 -3.59524 -2.11649 4.5067e-006 -1.99009e-005 -1.02763 -1.86915 -15.5793 0.202086 1.26754e-006 2.18775e-006 -0.508729 31.1573 77.1876 -32.8053 -8.16273 25.7535 3.02095 
55.5453 95.8472 13.5909 -3.49337 -3.9315 7.45571 1.18946 -0.173868 -1.39436 2.3963 3.62381 -2.93971 2.43502 5.26712 -2.98301 47.3428 4.22922 -10.2529 -35.4657 8.70379 -1.62281 73.5052 -27.6213 -14.6937 79.9009 21.562 -38.0539 -1.24056e-006 1.02476e-006 -4.50596e-007 -170.619 40.4629 128.426 7.51572e-006 -5.63955e-006 -3 8.02902 -4.95143 0.697671 -20.7623 8.38234 -16.1203 56.6963 76.9146 -164.075 2.4501e-005 -1.5118e-006 5.12599e-006 12.0092 -0.130851 0.341344 3.06198e-006 1.79767e-006 3.05764 -8.02902 -4.95144 -0.697668 177.355 8.31391 1.06025 180 7.01587e-015 179.113 177.677 7.82162 179.864 3.27169e-006 -1.13522e-006 0.00120214 -15.7844 65.877 18.0086 8.12745 25.2332 -3.48388 -174.292 -3.63853 -2.10499 4.5067e-006 -1.99009e-005 -1.03045 -1.8823 -15.5375 0.199254 1.26754e-006 2.18775e-006 -0.505322 31.0903 77.1615 -32.7376 -8.16534 25.7905 3.02542 
55.5638 95.85 13.5961 -3.4864 -3.92453 7.34109 1.18898 -0.167485 -1.39179 2.39624 3.63661 -2.93469 2.4349 5.27992 -2.97798 47.3931 4.13338 -10.1933 -35.5653 8.75038 -1.58006 73.5287 -27.6367 -14.6968 79.9092 21.4068 -38.0293 -1.24056e-006 1.02476e-006 -4.50596e-007 -170.632 40.4287 128.401 7.51572e-006 -5.63955e-006 -3 8.02902 -4.95143 0.697671 -20.6659 8.31038 -16.0743 56.792 76.804 -164.194 2.4501e-005 -1.5118e-006 5.12599e-006 12.09 -0.129312 0.313259 3.06198e-006 1.79767e-006 3.05821 -8.02902 -4.95144 -0.697668 177.307 8.31467 1.1235 180 7.01587e-015 179.112 177.611 7.80185 179.871 3.27169e-006 -1.13522e-006 0.00339699 -15.8162 65.8837 18.0095 8.12745 25.2332 -3.48388 -174.332 -3.68328 -2.0936 4.5067e-006 -1.99009e-005 -1.03337 -1.89541 -15.4952 0.196427 1.26754e-006 2.18775e-006 -0.501912 31.023 77.1349 -32.6695 -8.16805 25.8289 3.03105 
55.5829 95.8585 13.6041 -3.47912 -3.91853 7.22727 1.18829 -0.161028 -1.38911 2.39573 3.64957 -2.92943 2.43434 5.29289 -2.97272 47.4425 4.04026 -10.1362 -35.6566 8.79356 -1.5397 73.5505 -27.6492 -14.6988 79.9182 21.2556 -37.999 -1.24056e-006 1.02476e-006 -4.50596e-007 -170.646 40.3985 128.384 7.51572e-006 -5.63955e-006 -3 8.02902 -4.95143 0.697671 -20.5722 8.23584 -16.0244 56.92 76.6908 -164.351 2.4501e-005 -1.5118e-006 5.12599e-006 12.1746 -0.127668 0.283965 3.06198e-006 1.79767e-006 3.05887 -8.02902 -4.95144 -0.697668 177.259 8.31435 1.18714 180 7.01587e-015 179.111 177.544 7.78216 179.877 3.27169e-006 -1.13522e-006 0.00558404 -15.8474 65.8904 18.0104 8.12745 25.2332 -3.48388 -174.372 -3.72869 -2.08224 4.5067e-006 -1.99009e-005 -1.03635 -1.9084 -15.4532 0.193623 1.26754e-006 2.18775e-006 -0.498538 30.9567 77.1086 -32.6022 -8.17084 25.8685 3.03783 
55.5879 95.758 13.6328 -3.47166 -3.91304 7.1143 1.18744 -0.154712 -1.38645 2.39486 3.66226 -2.92418 2.43341 5.30558 -2.96746 47.4909 3.9521 -10.0826 -35.7394 8.8321 -1.50206 73.571 -27.6586 -14.6994 79.9265 21.1089 -37.9635 -1.24056e-006 1.02476e-006 -4.50596e-007 -170.659 40.3722 128.372 7.51572e-006 -5.63955e-006 -3 8.02902 -4.95143 0.697671 -20.4819 8.16006 -15.9717 57.0648 76.5785 -164.53 2.4501e-005 -1.5118e-006 5.12599e-006 12.2603 -0.125953 0.254522 3.06198e-006 1.79767e-006 3.05957 -8.02902 -4.95144 -0.697668 177.212 8.31377 1.25013 180 7.01586e-015 179.11 177.478 7.76314 179.884 3.27169e-006 -1.13522e-006 0.00772578 -15.8771 65.8971 18.0113 8.12745 25.2332 -3.48388 -174.412 -3.77394 -2.07082 4.5067e-006 -1.99009e-005 -1.03934 -1.9212 -15.4119 0.190862 1.26754e-006 2.18775e-006 -0.495241 30.8927 77.0828 -32.5369 -8.17368 25.9089 3.0458 
55.6019 95.783 13.6367 -3.46417 -3.90761 7.00227 1.18648 -0.148753 -1.38394 2.3937 3.67424 -2.9192 2.4322 5.31756 -2.96246 47.5385 3.87114 -10.0332 -35.8136 8.86479 -1.46751 73.591 -27.6644 -14.6984 79.9326 20.9668 -37.923 -1.24056e-006 1.02476e-006 -4.50596e-007 -170.672 40.3497 128.367 7.51572e-006 -5.63955e-006 -3 8.02902 -4.95143 0.697671 -20.3961 8.08437 -15.9175 57.2119 76.4707 -164.716 2.4501e-005 -1.5118e-006 5.12599e-006 12.3442 -0.124202 0.225987 3.06198e-006 1.79767e-006 3.06025 -8.02902 -4.95144 -0.697668 177.165 8.31374 1.3114 180 7.01586e-015 179.109 177.415 7.74519 179.89 3.27169e-006 -1.13522e-006 0.00978467 -15.9045 65.9033 18.0121 8.12745 25.2332 -3.48388 -174.452 -3.81823 -2.05926 4.5067e-006 -1.99009e-005 -1.04231 -1.93374 -15.3721 0.188162 1.26754e-006 2.18775e-006 -0.492061 30.8323 77.0581 -32.4749 -8.17656 25.9501 3.05497 
55.6282 95.8354 13.6272 -3.45678 -3.90177 6.89122 1.18545 -0.143367 -1.38169 2.39233 3.68508 -2.91472 2.43078 5.32841 -2.95796 47.585 3.79963 -9.989 -35.879 8.89042 -1.43638 73.611 -27.6662 -14.6954 79.935 20.8295 -37.878 -1.24056e-006 1.02476e-006 -4.50596e-007 -170.684 40.3308 128.366 7.51572e-006 -5.63955e-006 -3 8.02902 -4.95143 0.697671 -20.3155 8.01012 -15.8628 57.3476 76.3709 -164.894 2.4501e-005 -1.5118e-006 5.12599e-006 12.4237 -0.12245 0.19942 3.06198e-006 1.79767e-006 3.06085 -8.02902 -4.95144 -0.697668 177.12 8.3151 1.36991 180 7.01586e-015 179.109 177.355 7.72891 179.896 3.27169e-006 -1.13522e-006 0.0117232 -15.9288 65.909 18.0128 8.12744 25.2332 -3.48388 -174.492 -3.86077 -2.04747 4.5067e-006 -1.99009e-005 -1.04522 -1.94594 -15.3342 0.185543 1.26754e-006 2.18775e-006 -0.489038 30.7766 77.035 -32.4173 -8.17946 25.9916 3.06536 
55.6512 95.8125 13.6407 -3.44963 -3.89506 6.78122 1.18441 -0.138769 -1.37983 2.39083 3.69435 -2.91101 2.42924 5.33768 -2.95423 47.6305 3.73982 -9.95088 -35.9356 8.90777 -1.40903 73.6315 -27.6638 -14.6902 79.9321 20.6975 -37.8289 -1.24056e-006 1.02476e-006 -4.50596e-007 -170.696 40.3152 128.369 7.51572e-006 -5.63955e-006 -3 8.02902 -4.95143 0.697671 -20.2412 7.93866 -15.8088 57.4585 76.283 -165.05 2.4501e-005 -1.5118e-006 5.12599e-006 12.4959 -0.120733 0.17588 3.06198e-006 1.79767e-006 3.0613 -8.02902 -4.95144 -0.697668 177.076 8.31867 1.42459 180 7.01586e-015 179.108 177.299 7.71473 179.901 3.27169e-006 -1.13522e-006 0.0135038 -15.949 65.9139 18.0133 8.12744 25.2332 -3.48388 -174.531 -3.90074 -2.03537 4.5067e-006 -1.99009e-005 -1.04804 -1.95772 -15.299 0.183024 1.26754e-006 2.18775e-006 -0.486213 30.727 77.014 -32.3654 -8.18236 26.0334 3.07699 
55.6726 95.826 13.6544 -3.44284 -3.88702 6.67234 1.18342 -0.135174 -1.37849 2.38928 3.70161 -2.9083 2.42766 5.34495 -2.95149 47.675 3.69395 -9.91971 -35.9831 8.91563 -1.3858 73.6533 -27.6567 -14.6825 79.9225 20.5709 -37.7761 -1.24056e-006 1.02476e-006 -4.50596e-007 -170.708 40.3029 128.376 7.51572e-006 -5.63955e-006 -3 8.02902 -4.95143 0.697671 -20.1741 7.87134 -15.7567 57.5319 76.2105 -165.169 2.4501e-005 -1.5118e-006 5.12599e-006 12.5582 -0.119085 0.156425 3.06198e-006 1.79767e-006 3.06156 -8.02902 -4.95144 -0.697668 177.035 8.32526 1.47441 180 7.01586e-015 179.108 177.249 7.70318 179.906 3.27169e-006 -1.13522e-006 0.0150889 -15.9642 65.9178 18.0136 8.12744 25.2332 -3.48388 -174.571 -3.93733 -2.02288 4.5067e-006 -1.99009e-005 -1.05071 -1.96903 -15.2671 0.180624 1.26754e-006 2.18775e-006 -0.483626 30.6847 76.9955 -32.3202 -8.18523 26.0752 3.08987 
55.6805 95.8159 13.6597 -3.43655 -3.87718 6.56464 1.18252 -0.132797 -1.37778 2.38776 3.70644 -2.90684 2.42613 5.34978 -2.95001 47.7184 3.66427 -9.89639 -36.0215 8.91277 -1.36704 73.6769 -27.6446 -14.6719 79.9047 20.4501 -37.7199 -1.24056e-006 1.02476e-006 -4.50596e-007 -170.718 40.2937 128.386 7.51572e-006 -5.63955e-006 -3 8.02902 -4.95143 0.697671 -20.1151 7.80951 -15.7077 57.5552 76.1572 -165.239 2.4501e-005 -1.5118e-006 5.12599e-006 12.6077 -0.117542 0.142114 3.06198e-006 1.79767e-006 3.06156 -8.02902 -4.95144 -0.697668 176.998 8.33572 1.5183 180 7.01586e-015 179.108 177.206 7.69477 179.91 3.27169e-006 -1.13522e-006 0.0164411 -15.9736 65.9205 18.0136 8.12744 25.2332 -3.48388 -174.61 -3.96975 -2.00991 4.5067e-006 -1.99009e-005 -1.05321 -1.97978 -15.239 0.178362 1.26754e-006 2.18775e-006 -0.481317 30.6508 76.98 -32.283 -8.18807 26.1167 3.10403 
